<?xml version="1.0" encoding="UTF-8"?>
<svg version="1.1" xmlns="http://www.w3.org/2000/svg" width="400" height="400">
<path d="M0 0 C132 0 264 0 400 0 C400 132 400 264 400 400 C268 400 136 400 0 400 C0 268 0 136 0 0 Z " fill="#000000" transform="translate(0,0)"/>
<path d="M0 0 C7.16336092 4.64196132 11.23798935 9.81193566 15.1640625 17.40234375 C15.50695312 18.03914063 15.84984375 18.6759375 16.203125 19.33203125 C20.05606884 27.72208652 19.17043116 38.45387064 16.23046875 47.00390625 C14.28393042 51.38183494 11.79209695 55.40500979 9.1640625 59.40234375 C4.17817409 57.4056801 1.15660123 53.29665045 -2.3984375 49.421875 C-4.5680618 47.23504874 -4.5680618 47.23504874 -6.8359375 47.2265625 C-9.71055401 48.76500142 -9.71055401 48.76500142 -13.8359375 54.40234375 C-9.8759375 58.36234375 -5.9159375 62.32234375 -1.8359375 66.40234375 C-7.60599283 72.17239908 -13.62058933 72.54364283 -21.5859375 72.71484375 C-28.18457141 72.65239611 -33.05865395 71.54557768 -38.8359375 68.40234375 C-40.00769531 67.76619141 -40.00769531 67.76619141 -41.203125 67.1171875 C-51.15392541 61.10315156 -56.07988077 52.39677215 -59.4140625 41.515625 C-61.6813341 30.15827374 -59.26510714 20.53517525 -53.26171875 10.8671875 C-49.30303984 5.33980133 -44.78950001 1.63455838 -38.8359375 -1.59765625 C-38.07539063 -2.01144531 -37.31484375 -2.42523438 -36.53125 -2.8515625 C-24.66762573 -8.43330048 -11.0131066 -6.52838793 0 0 Z " fill="#010101" transform="translate(299.8359375,96.59765625)"/>
<path d="M0 0 C6.62725121 5.19050362 11.93768142 10.61067866 16 18 C16.48597656 18.80050781 16.97195313 19.60101563 17.47265625 20.42578125 C22.92752823 30.92527022 23.11856045 45.69217821 20.078125 57.05859375 C17.92852835 62.98394295 14.9107095 68.15698732 11.13671875 73.1953125 C9.73352051 75.06759642 9.73352051 75.06759642 10 78 C12.30627107 80.41697208 14.6918337 82.65737457 17.17773438 84.88476562 C18.69140625 86.30859375 18.69140625 86.30859375 21 89 C20.83984375 91.34765625 20.83984375 91.34765625 20 93 C8.53123933 94.08651417 8.53123933 94.08651417 4.75390625 91.40625 C3 89.4375 3 89.4375 1.5625 87.43359375 C0.7890625 86.72396484 0.7890625 86.72396484 0 86 C-4.07027073 86.22999817 -7.74613704 87.99143825 -11.5 89.5 C-23.36004411 94.26618595 -34.90034516 94.24211006 -47 90 C-59.69901437 84.56503089 -69.874086 75.41784718 -75.4375 62.71875 C-81.45188103 47.54610694 -81.45991444 34.66619857 -74.9375 19.53515625 C-67.81549042 5.46424149 -55.6275944 -3.04517383 -41 -8 C-26.84788193 -10.89267096 -11.8951972 -8.48423321 0 0 Z M-47 7 C-47.78117187 7.42410156 -48.56234375 7.84820312 -49.3671875 8.28515625 C-59.00082872 14.10750843 -65.0721648 23.18652865 -68 34 C-69.48410247 46.76328127 -66.64603008 57.70126561 -59 68 C-52.55990211 75.11873186 -43.55072427 80.65310204 -33.828125 81.16796875 C-24.96088523 81.21637071 -17.54389102 81.18642508 -10 76 C-10.36351562 75.57589844 -10.72703125 75.15179688 -11.1015625 74.71484375 C-14.734375 70.4765625 -18.3671875 66.23828125 -22 62 C-21.09972412 60.96468274 -20.17906965 59.94705835 -19.25 58.9375 C-18.73953125 58.36902344 -18.2290625 57.80054688 -17.703125 57.21484375 C-16 56 -16 56 -14.1484375 55.96875 C-10.9419421 57.50786779 -8.76830602 59.99961481 -6.375 62.5625 C-4.61927906 64.42679842 -2.84611367 66.22128413 -1 68 C-0.34 68 0.32 68 1 68 C8.74882159 57.85530321 11.46662068 46.61293784 10 34 C7.0096571 22.95566689 0.88671643 14.18291039 -8.8671875 8.21484375 C-20.71149808 1.46835915 -34.78243343 0.35281548 -47 7 Z " fill="#F8F8F8" transform="translate(308,88)"/>
<path d="M0 0 C10.09830586 8.62782447 17.2215589 19.71082136 19.44140625 32.99609375 C19.53455404 34.88659105 19.57929047 36.77983113 19.58666992 38.67260742 C19.59304977 39.78693649 19.59942963 40.90126556 19.60600281 42.04936218 C19.60711563 43.24221329 19.60822845 44.43506439 19.609375 45.6640625 C19.6143676 47.51080315 19.6143676 47.51080315 19.61946106 49.39485168 C19.6245179 51.99296699 19.62686977 54.59108877 19.62670898 57.18920898 C19.62817688 59.85768371 19.63364029 62.52569791 19.6472168 65.1940918 C19.66544703 69.03830245 19.67044088 72.88231308 19.671875 76.7265625 C19.67906052 77.9254863 19.68624603 79.1244101 19.69364929 80.35966492 C19.69057266 81.46453751 19.68749603 82.5694101 19.68432617 83.70776367 C19.68575119 84.68307541 19.68717621 85.65838715 19.68864441 86.66325378 C19.44140625 88.99609375 19.44140625 88.99609375 17.44140625 90.99609375 C15.27734375 91.19140625 15.27734375 91.19140625 12.81640625 91.12109375 C11.99914062 91.10304688 11.181875 91.085 10.33984375 91.06640625 C9.71335937 91.04320312 9.086875 91.02 8.44140625 90.99609375 C7.15770607 88.42869338 7.31679977 86.60163699 7.31542969 83.72705078 C7.31162292 82.62475128 7.30781616 81.52245178 7.30389404 80.38674927 C7.30286682 79.18791107 7.3018396 77.98907288 7.30078125 76.75390625 C7.28243901 74.21743904 7.26286741 71.68098048 7.2421875 69.14453125 C7.21332751 65.14424267 7.19140918 61.14493062 7.19091797 57.14453125 C7.18756072 53.284659 7.15285586 49.42605622 7.11328125 45.56640625 C7.12035095 44.38781036 7.12742065 43.20921448 7.13470459 41.99490356 C6.974657 30.94032806 3.55585703 21.5276176 -3.52734375 12.96875 C-7.07266148 9.52570105 -11.18232125 7.23187786 -15.55859375 4.99609375 C-16.19410156 4.63386719 -16.82960938 4.27164063 -17.484375 3.8984375 C-25.42018105 0.44613769 -36.86956708 0.60330357 -44.87109375 3.62109375 C-56.96437622 9.30036926 -63.46901013 16.28398421 -68.49768066 28.63763428 C-70.27460825 34.26273152 -70.26560459 39.70888206 -70.23046875 45.56640625 C-70.24321838 46.80985809 -70.25596802 48.05330994 -70.269104 49.33444214 C-70.30513427 53.26356394 -70.30811128 57.19182201 -70.30859375 61.12109375 C-70.32673561 65.0857511 -70.3586067 69.05029722 -70.39093018 73.01486206 C-70.40869958 75.4721141 -70.418976 77.92943388 -70.42108154 80.38674927 C-70.42488831 81.48904877 -70.42869507 82.59134827 -70.43261719 83.72705078 C-70.43308044 84.69901398 -70.4335437 85.67097717 -70.434021 86.6723938 C-70.55859375 88.99609375 -70.55859375 88.99609375 -71.55859375 90.99609375 C-73.01652259 91.05009111 -74.47502087 91.08888552 -75.93359375 91.12109375 C-76.74570313 91.14429688 -77.5578125 91.1675 -78.39453125 91.19140625 C-80.55859375 90.99609375 -80.55859375 90.99609375 -82.55859375 88.99609375 C-82.82601929 86.71708679 -82.82601929 86.71708679 -82.84912109 83.8347168 C-82.8618808 82.75566574 -82.8746405 81.67661469 -82.88778687 80.56486511 C-82.89001251 79.39103775 -82.89223816 78.21721039 -82.89453125 77.0078125 C-82.90118805 75.79849564 -82.90784485 74.58917877 -82.91470337 73.34321594 C-82.92485187 70.7733411 -82.92951971 68.20343978 -82.92919922 65.63354492 C-82.9335336 61.73766109 -82.96972382 57.84294588 -83.0078125 53.94726562 C-83.01368824 51.44661844 -83.01765256 48.94596589 -83.01953125 46.4453125 C-83.03390228 45.29375168 -83.04827332 44.14219086 -83.06307983 42.95573425 C-82.98371899 28.59161619 -78.28083087 14.71863791 -68.30859375 4.18359375 C-49.11116637 -13.82404332 -21.13212784 -16.55081158 0 0 Z " fill="#F6F6F6" transform="translate(162.55859375,90.00390625)"/>
<path d="M0 0 C1.32 0 2.64 0 4 0 C5.52361408 2.74250534 7.04722147 5.4850144 8.57080078 8.22753906 C9.91668415 10.65014586 11.2627322 13.07266105 12.60888672 15.49511719 C16.03487838 21.66064263 19.45925312 27.82705002 22.87890625 33.99609375 C28.79593496 44.66624621 34.73459747 55.3224539 40.75 65.9375 C41.79969546 67.7967529 42.84917807 69.65612599 43.8984375 71.515625 C46.01372214 75.26392545 48.14753508 79.00101704 50.2890625 82.734375 C51.31827277 84.5517638 52.34694213 86.36945906 53.375 88.1875 C53.85807617 89.01950928 54.34115234 89.85151855 54.83886719 90.70874023 C55.48710449 91.86418335 55.48710449 91.86418335 56.1484375 93.04296875 C56.72343994 94.04880005 56.72343994 94.04880005 57.31005859 95.07495117 C58.15580311 97.43471605 57.81810632 98.67121916 57 101 C52.98195006 102.16874837 49.99807765 102.33098616 46 101 C42.3301645 96.76142979 40.00824202 91.92309511 37.50048828 86.93212891 C34.89242408 81.83566761 32.06743338 76.85736027 29.28143311 71.85678101 C27.55240117 68.74418589 25.8416791 65.6215614 24.12890625 62.5 C20.18170403 55.3146003 16.19348828 48.15279471 12.1875 41 C11.60709961 39.96230469 11.02669922 38.92460937 10.42871094 37.85546875 C9.61901855 36.41107422 9.61901855 36.41107422 8.79296875 34.9375 C8.08950317 33.68259766 8.08950317 33.68259766 7.37182617 32.40234375 C6.39187841 30.68625797 5.37160073 28.99294871 4.32543945 27.31640625 C3 25 3 25 3 23 C2.34 23 1.68 23 1 23 C0.78859375 23.77730469 0.5771875 24.55460937 0.359375 25.35546875 C-1.49414881 30.32483 -4.10037543 34.7285251 -6.75 39.3125 C-7.93286286 41.38118392 -9.1151343 43.45020609 -10.296875 45.51953125 C-10.90853516 46.58768066 -11.52019531 47.65583008 -12.15039062 48.75634766 C-15.13256779 53.98617946 -18.06517204 59.24349953 -21 64.5 C-25.75904181 73.00664519 -30.52640549 81.508542 -35.3125 90 C-35.87001953 90.99193359 -36.42753906 91.98386719 -37.00195312 93.00585938 C-37.76862305 94.36420898 -37.76862305 94.36420898 -38.55078125 95.75 C-39.00106689 96.54921875 -39.45135254 97.3484375 -39.9152832 98.171875 C-41 100 -41 100 -42 101 C-43.85287502 101.07226502 -45.70833878 101.0838122 -47.5625 101.0625 C-49.08037109 101.04896484 -49.08037109 101.04896484 -50.62890625 101.03515625 C-51.41136719 101.02355469 -52.19382812 101.01195312 -53 101 C-53.89354457 98.55055102 -54.13837209 97.37324165 -53.21826172 94.89135742 C-52.79303223 94.13701416 -52.36780273 93.3826709 -51.9296875 92.60546875 C-51.45233154 91.74477783 -50.97497559 90.88408691 -50.4831543 89.99731445 C-49.95246338 89.07007568 -49.42177246 88.14283691 -48.875 87.1875 C-48.32948486 86.21192139 -47.78396973 85.23634277 -47.22192383 84.23120117 C-45.49345294 81.14709588 -43.74799912 78.07307155 -42 75 C-40.9432773 73.12801782 -39.88726705 71.25563325 -38.83203125 69.3828125 C-36.69956733 65.60229376 -34.56018514 61.82578066 -32.41796875 58.05078125 C-28.73948924 51.5555154 -25.11803657 45.02907381 -21.5 38.5 C-16.03133003 28.63213928 -10.51461389 18.79300108 -4.94726562 8.98046875 C-4.44130859 8.0884375 -3.93535156 7.19640625 -3.4140625 6.27734375 C-2.9701416 5.49609131 -2.5262207 4.71483887 -2.06884766 3.90991211 C-1.34875911 2.62319382 -0.65941967 1.31883933 0 0 Z " fill="#F9F9F9" transform="translate(130,223)"/>
<path d="M0 0 C1.21816406 0.03480469 1.21816406 0.03480469 2.4609375 0.0703125 C3.68683594 0.09738281 3.68683594 0.09738281 4.9375 0.125 C5.87722656 0.15980469 5.87722656 0.15980469 6.8359375 0.1953125 C8.55650918 3.63645586 7.97379238 7.59989267 7.96533203 11.38671875 C7.96708435 12.33964813 7.96883667 13.29257751 7.97064209 14.27438354 C7.97505619 17.43554486 7.97212415 20.59665058 7.96875 23.7578125 C7.96942317 25.94734711 7.9703933 28.13688166 7.97164917 30.32641602 C7.97312554 34.91976634 7.97097351 39.51309724 7.96630859 44.10644531 C7.96061135 50.00492397 7.96389067 55.90335712 7.96988106 61.80183411 C7.97348829 66.32442571 7.97234733 70.84700646 7.96975327 75.36959839 C7.96908445 77.54499314 7.96991085 79.72038886 7.97223282 81.89578247 C7.97476198 84.93185042 7.97091497 87.96784387 7.96533203 91.00390625 C7.96735626 91.90994598 7.96938049 92.81598572 7.97146606 93.7494812 C7.95020124 99.96678503 7.95020124 99.96678503 6.8359375 102.1953125 C5.37800866 102.24930986 3.91951038 102.28810427 2.4609375 102.3203125 C1.64882813 102.34351563 0.83671875 102.36671875 0 102.390625 C-2.1640625 102.1953125 -2.1640625 102.1953125 -4.1640625 100.1953125 C-4.36306955 97.10207048 -4.43667832 94.09831476 -4.42285156 91.00390625 C-4.42810852 89.57451218 -4.42810852 89.57451218 -4.43347168 88.11624146 C-4.44230003 84.95502515 -4.43643592 81.79403123 -4.4296875 78.6328125 C-4.43103383 76.44327756 -4.4329741 74.2537429 -4.43548584 72.06420898 C-4.4384386 67.47083699 -4.43413455 62.87754267 -4.42480469 58.28417969 C-4.41341011 52.38565387 -4.41996876 46.48731003 -4.43194962 40.58879089 C-4.4391641 36.06618876 -4.43688218 31.54363003 -4.43169403 27.02102661 C-4.43035639 24.8456317 -4.43200921 22.67023289 -4.43665314 20.49484253 C-4.44171159 17.45869452 -4.43401768 14.42284447 -4.42285156 11.38671875 C-4.42690002 10.48067902 -4.43094849 9.57463928 -4.43511963 8.6411438 C-4.37871294 0.3951907 -4.37871294 0.3951907 0 0 Z " fill="#F3F3F3" transform="translate(277.1640625,221.8046875)"/>
</svg>

